HIERARCHY
ROOT RootJoint
{
    OFFSET   0.000000   0.000000   0.000000
    CHANNELS 6 Xposition Yposition Zposition Xrotation Yrotation Zrotation
    JOINT pelvis_lowerback
    {
        OFFSET   0.000000   0.093605   0.000000
        CHANNELS 3 Xrotation Yrotation Zrotation
        JOINT lowerback_torso
        {
            OFFSET   0.000000   0.100000   0.000000
            CHANNELS 3 Xrotation Yrotation Zrotation
            JOINT torso_head
            {
                OFFSET   0.000000   0.282350   0.000000
                CHANNELS 3 Xrotation Yrotation Zrotation
                End Site
                {
                    OFFSET   0.000000   0.192650   0.000000
                }
            }
            JOINT rTorso_Clavicle
            {
                OFFSET  -0.001000   0.157500   0.000000
                CHANNELS 3 Xrotation Yrotation Zrotation
                JOINT rShoulder
                {
                    OFFSET  -0.117647   0.000000   0.000000
                    CHANNELS 3 Xrotation Yrotation Zrotation
                    JOINT rElbow
                    {
                        OFFSET  -0.245000   0.000000   0.000000
                        CHANNELS 3 Xrotation Yrotation Zrotation
                        JOINT rWrist
                        {
                            OFFSET  -0.240000   0.000000   0.000000
                            CHANNELS 3 Xrotation Yrotation Zrotation
                            End Site
                            {
                                OFFSET  -0.116353  -0.002500   0.000000
                            }
                        }
                    }
                }
            }
            JOINT lTorso_Clavicle
            {
                OFFSET   0.001000   0.157500   0.000000
                CHANNELS 3 Xrotation Yrotation Zrotation
                JOINT lShoulder
                {
                    OFFSET   0.117647   0.000000   0.000000
                    CHANNELS 3 Xrotation Yrotation Zrotation
                    JOINT lElbow
                    {
                        OFFSET   0.245000   0.000000   0.000000
                        CHANNELS 3 Xrotation Yrotation Zrotation
                        JOINT lWrist
                        {
                            OFFSET   0.240000   0.000000   0.000000
                            CHANNELS 3 Xrotation Yrotation Zrotation
                            End Site
                            {
                                OFFSET   0.116353  -0.002500   0.000000
                            }
                        }
                    }
                }
            }
        }
    }
    JOINT rHip
    {
        OFFSET  -0.100000  -0.051395   0.000000
        CHANNELS 3 Xrotation Yrotation Zrotation
        JOINT rKnee
        {
            OFFSET   0.000000  -0.410000   0.000000
            CHANNELS 3 Xrotation Yrotation Zrotation
            JOINT rAnkle
            {
                OFFSET   0.000000  -0.390000   0.000000
                CHANNELS 3 Xrotation Yrotation Zrotation
                JOINT rToeJoint
                {
                    OFFSET   0.000000  -0.050000   0.130000
                    CHANNELS 3 Xrotation Yrotation Zrotation
                    End Site
                    {
                        OFFSET  -0.010000   0.002000   0.060000
                    }
                }
            }
        }
    }
    JOINT lHip
    {
        OFFSET   0.100000  -0.051395   0.000000
        CHANNELS 3 Xrotation Yrotation Zrotation
        JOINT lKnee
        {
            OFFSET   0.000000  -0.410000   0.000000
            CHANNELS 3 Xrotation Yrotation Zrotation
            JOINT lAnkle
            {
                OFFSET   0.000000  -0.390000   0.000000
                CHANNELS 3 Xrotation Yrotation Zrotation
                JOINT lToeJoint
                {
                    OFFSET   0.000000  -0.050000   0.130000
                    CHANNELS 3 Xrotation Yrotation Zrotation
                    End Site
                    {
                        OFFSET   0.010000   0.002000   0.060000
                    }
                }
            }
        }
    }
}
MOTION
Frames: 11
Frame Time:   0.008333
 -2.446802   0.907819   4.626439   1.724697  10.695867  -3.893604   0.398333  -0.625246  -0.285389   1.454452  -0.653700   5.902951  -0.145165   1.303876   1.972062   3.849648  -4.253149   1.205563   5.028981   9.048254  59.729027 -179.979002  89.978461 179.977126  -3.366058   3.401846  -5.824877   4.466189   4.257522   2.155662  10.964570 -13.982770 -53.410121 -179.991182 -70.754848 -179.990203  -1.351807  -5.960112   3.916182 -14.651024  -1.435400 -11.627844  52.779236   0.004257   0.030354   3.368081  -8.637074   4.592065  -9.566185   0.008986   0.011174  -8.739779  -0.564525   0.482435  24.148029  -0.007420  -0.007542 -18.488684   7.078375  11.522707  -0.141276   0.000507   0.000476
 -2.444097   0.908434   4.630251   1.589471  11.107034  -3.903598   0.510545  -0.897321  -0.282901   1.489459  -0.785466   5.888990  -0.150830   1.311015   1.960594   3.984331  -4.408999   1.223211   5.371117   8.834827  59.697288   0.084021  89.977448  -0.085526  -3.398078   3.289068  -5.760557   4.303700   3.914900   2.056990  10.024116 -14.259980 -53.664385 -179.992085 -70.532861 -179.991399  -1.412669  -5.915055   3.989067 -15.243551  -1.431667 -11.110690  53.558344   0.002685   0.028515   2.596299  -8.834424   4.595810  -8.771618   0.005031   0.011959  -7.979061  -0.669730   0.398259  23.416172  -0.006989  -0.007661 -18.140421   6.643847  11.395185   0.033577   0.000706   0.000087
 -2.441538   0.909125   4.634053   1.490393  11.554910  -3.906071   0.620153  -1.196171  -0.312688   1.511559  -0.957233   5.861051  -0.159351   1.322163   1.954190   4.131299  -4.574918   1.240374   5.709848   8.631824  59.676294   0.064333  89.950881  -0.065535  -3.421376   3.250846  -5.670219   4.106368   3.547095   1.957646   9.094068 -14.540898 -53.916917 -179.993040 -70.315221 -179.992638  -1.467348  -5.923034   4.106815 -15.872868  -1.438872 -10.566151  54.158275   0.001575   0.026420   1.863188  -9.016862   4.596344  -8.082848   0.001952   0.012756  -7.229771  -0.737942   0.330981  22.659588  -0.006673  -0.008350 -18.014973   6.283792  11.272162   0.226065   0.000890   0.000071
 -2.439063   0.909762   4.637867   1.401357  12.010618  -3.902278   0.737271  -1.508296  -0.352931   1.535463  -1.153329   5.817380  -0.167074   1.332805   1.945405   4.274714  -4.739195   1.246931   6.032157   8.438642  59.655714   0.058152  89.929379  -0.059108  -3.441880   3.233735  -5.579010   3.900004   3.177046   1.866564   8.200252 -14.813879 -54.160436 -179.994062 -70.104714 -179.993909  -1.516602  -5.980718   4.231849 -16.532076  -1.448439 -10.011795  54.674702   0.000743   0.024368   1.176148  -9.186193   4.594976  -7.456785  -0.000414   0.013371  -6.489339  -0.816998   0.265667  21.897909  -0.006361  -0.008925 -17.878960   5.924935  11.153897   0.385190   0.000963   0.000056
 -2.436642   0.910293   4.641724   1.312342  12.463303  -3.889797   0.859769  -1.824044  -0.400895   1.565473  -1.361257   5.762876  -0.172829   1.342361   1.934904   4.411784  -4.900593   1.244271   6.336562   8.253491  59.632972   0.054054  89.910209  -0.054809  -3.460946   3.221538  -5.500523   3.696342   2.816341   1.782567   7.352387 -15.073545 -54.393067 -179.995045 -69.904409 -179.995103  -1.562000  -6.065084   4.347695 -17.205182  -1.460869  -9.462504  55.133022   0.000119   0.022392   0.533431  -9.343636   4.592265  -6.885780  -0.002174   0.013706  -5.759046  -0.904197   0.199462  21.163096  -0.006014  -0.009252 -17.755665   5.576173  11.042800   0.465700   0.000888   0.000043
 -2.434252   0.910702   4.645647   1.221222  12.908970  -3.867384   0.983220  -2.136552  -0.454874   1.600784  -1.572956   5.700778  -0.176807   1.350867   1.923377   4.542484  -5.058667   1.235130   6.623790   8.075789  59.608407   0.050345  89.892260  -0.050938  -3.479108   3.208813  -5.437932   3.501183   2.471011   1.703499   6.553822 -15.317696 -54.614997 -179.995909 -69.715677 -179.996144  -1.604705  -6.160435   4.450133 -17.880190  -1.476451  -8.928073  55.543368  -0.000334   0.020494  -0.067474  -9.490177   4.588572  -6.364370  -0.003429   0.013763  -5.040407  -0.996986   0.130563  20.467155  -0.005638  -0.009339 -17.654693   5.239135  10.937706   0.524528   0.000792   0.000033
 -2.431879   0.910988   4.649646   1.128945  13.346509  -3.835212   1.103745  -2.441100  -0.513015   1.639176  -1.783081   5.633654  -0.179567   1.358456   1.911288   4.666984  -5.212634   1.221942   6.894639   7.905615  59.582944   0.046538  89.875064  -0.047000  -3.496614   3.193682  -5.389979   3.317231   2.143932   1.627799   5.804790 -15.545722 -54.826762 -179.996620 -69.538801 -179.996998  -1.645398  -6.258282   4.539327 -18.548637  -1.495013  -8.414228  55.912059  -0.000647   0.018684  -0.629128  -9.626673   4.584158  -5.887931  -0.004272   0.013581  -4.335088  -1.094280   0.058344  19.813557  -0.005248  -0.009230 -17.579584   4.913698  10.837496   0.566019   0.000688   0.000026
 -2.429615   0.911415   4.653702   1.150849  13.776443  -3.928073   1.145904  -2.709825  -0.477329   1.632515  -1.982350   5.578332  -0.239573   1.393389   1.930932   4.767453  -5.460322   1.260815   7.285293   7.651058  59.501328 -179.829132  89.803922 179.828576  -3.527257   3.038490  -5.292161   3.124280   1.776436   1.523495   4.966742 -15.866939 -55.090842 -179.997277 -69.515104 -179.997617  -1.677336  -6.326912   4.594730 -19.098387  -1.545296  -7.767980  55.294695   0.000154   0.010830  -1.252955  -9.765251   4.691443  -5.451887  -0.005750   0.013592  -3.747176  -1.135971   0.125760  19.164875  -0.004843  -0.009537 -17.478596   4.525811  10.608093   0.571077   0.000561   0.000020
 -2.427403   0.911750   4.657725   1.199260  14.157273  -4.009979   1.194782  -2.975143  -0.468590   1.609316  -2.193272   5.513282  -0.302866   1.430818   1.954738   4.863823  -5.704790   1.286264   7.651325   7.413672  59.432138 -179.861142  89.477257 179.860468  -3.545866   3.020223  -5.187508   2.918011   1.402869   1.427378   4.154161 -16.176318 -55.346197 -179.997831 -69.497476 -179.998134  -1.710204  -6.364416   4.673486 -19.679920  -1.581428  -7.151517  54.479400   0.001242   0.003515  -1.847242  -9.893653   4.790044  -5.061824  -0.006829   0.013279  -3.194552  -1.160598   0.178508  18.532406  -0.004442  -0.009556 -17.387094   4.170044  10.390298   0.566496   0.000440   0.000017
 -2.425228   0.911966   4.661772   1.244503  14.505240  -4.074963   1.257532  -3.245774  -0.479691   1.591590  -2.412723   5.436852  -0.361801   1.465605   1.975711   4.952636  -5.936858   1.303867   7.991594   7.190468  59.367358 -179.872375  89.167432 179.871580  -3.559918   3.045712  -5.093157   2.711920   1.036797   1.338974   3.379705 -16.469268 -55.588831 -179.998293 -69.480302 -179.998567  -1.741413  -6.404376   4.754260 -20.283865  -1.613149  -6.572044  53.641249   0.002361  -0.002158  -2.405194 -10.013804   4.881323  -4.706679  -0.007537   0.012729  -2.652228  -1.178395   0.216217  17.935204  -0.004045  -0.009322 -17.319935   3.841815  10.184934   0.554895   0.000330   0.000014
 -2.423081   0.912069   4.665883   1.281128  14.830555  -4.127201   1.328632  -3.518849  -0.502856   1.582848  -2.636611   5.352917  -0.415364   1.497436   1.993501   5.036711  -6.158871   1.316149   8.310278   6.978467  59.305422 -179.881665  88.877563 179.880763  -3.572399   3.079954  -5.014119   2.513107   0.684149   1.254695   2.647989 -16.745191 -55.820293 -179.998673 -69.463820 -179.998924  -1.771106  -6.448412   4.823958 -20.895974  -1.644921  -6.025737  52.826834   0.003363  -0.006277  -2.927202 -10.126373   4.966060  -4.382986  -0.007919   0.012024  -2.113514  -1.194349   0.244861  17.376394  -0.003660  -0.008921 -17.281095   3.535656   9.990171   0.538016   0.000233   0.000012
